{
.appVersion = "3260";
.formatVersion = 3;
DisplayStrings = (
os,
i
);
date = "2024-10-15 11:47:21 +0000";
familyName = "Blocky Not So";
featurePrefixes = (
{
automatic = 1;
code = "languagesystem DFLT dflt;
";
name = Languagesystems;
}
);
fontMaster = (
{
id = m002;
metricValues = (
{
over = 16;
pos = 710;
},
{
over = 16;
pos = 680;
},
{
over = 16;
pos = 500;
},
{
over = -16;
},
{
over = -16;
pos = -200;
}
);
name = Regular;
}
);
glyphs = (
{
color = 4;
glyphname = a;
lastChange = "2024-11-02 12:50:35 +0000";
layers = (
{
background = {
shapes = (
{
closed = 1;
nodes = (
(270,210,l),
(150,210,l),
(150,100,l),
(270,100,l)
);
},
{
closed = 1;
nodes = (
(210,0,l),
(50,0,l),
(50,290,l),
(270,290,l),
(270,400,l),
(50,400,l),
(50,420,l),
(130,500,l),
(370,500,l),
(370,100,l),
(450,100,l),
(450,80,l),
(420,0,l),
(340,0,l),
(290,80,l)
);
}
);
};
layerId = m002;
shapes = (
{
closed = 1;
nodes = (
(270,210,l),
(150,210,l),
(150,100,l),
(270,100,l)
);
},
{
closed = 1;
nodes = (
(230,0,l),
(50,0,l),
(50,290,l),
(270,290,l),
(270,400,l),
(50,400,l),
(50,430,l),
(110,500,l),
(370,500,l),
(370,100,l),
(430,100,l),
(430,80,l),
(390,0,l),
(310,0,l),
(270,80,l)
);
}
);
width = 440;
}
);
unicode = 97;
},
{
color = 4;
glyphname = b;
lastChange = "2024-10-21 22:26:16 +0000";
layers = (
{
background = {
shapes = (
{
closed = 0;
nodes = (
(370,0,l),
(370,500,l),
(210,500,l),
(150,429,l),
(150,710,l),
(50,710,l),
(50,0,l)
);
},
{
closed = 0;
nodes = (
(150,0,l),
(150,400,l),
(270,400,l),
(270,0,l)
);
}
);
};
layerId = m002;
shapes = (
{
closed = 1;
nodes = (
(300,0,l),
(370,60,l),
(370,500,l),
(210,500,l),
(150,429,l),
(150,710,l),
(50,710,l),
(50,0,l)
);
},
{
closed = 1;
nodes = (
(150,400,l),
(270,400,l),
(270,100,l),
(150,100,l)
);
}
);
width = 420;
}
);
unicode = 98;
},
{
color = 4;
glyphname = c;
lastChange = "2024-10-22 22:47:01 +0000";
layers = (
{
background = {
shapes = (
{
closed = 1;
nodes = (
(250,400,l),
(150,400,l),
(150,100,l),
(330,100,l),
(330,80,l),
(250,0,l),
(50,0,l),
(50,420,l),
(130,500,l),
(330,500,l),
(330,480,l)
);
}
);
};
layerId = m002;
shapes = (
{
closed = 1;
nodes = (
(315,470,l),
(255,400,l),
(150,400,l),
(150,100,l),
(315,100,l),
(315,70,l),
(255,0,l),
(50,0,l),
(50,430,l),
(110,500,l),
(315,500,l)
);
}
);
width = 335;
}
);
metricLeft = o;
unicode = 99;
},
{
color = 4;
glyphname = d;
lastChange = "2024-10-21 22:27:15 +0000";
layers = (
{
background = {
shapes = (
{
closed = 1;
nodes = (
(150,100,l),
(150,400,l),
(270,400,l),
(270,100,l)
);
},
{
closed = 1;
nodes = (
(440,100,l),
(370,100,l),
(370,710,l),
(270,710,l),
(270,500,l),
(110,500,l),
(50,430,l),
(50,0,l),
(230,0,l),
(270,80,l),
(310,0,l),
(400,0,l),
(440,80,l),
(440,100,l),
(370,100,l)
);
}
);
};
layerId = m002;
shapes = (
{
closed = 1;
nodes = (
(150,100,l),
(150,400,l),
(270,400,l),
(270,100,l)
);
},
{
closed = 1;
nodes = (
(430,100,l),
(370,100,l),
(370,710,l),
(270,710,l),
(270,500,l),
(110,500,l),
(50,430,l),
(50,0,l),
(230,0,l),
(270,80,l),
(300,0,l),
(390,0,l),
(430,80,l)
);
}
);
width = 440;
}
);
metricLeft = o;
metricRight = a;
unicode = 100;
},
{
color = 4;
glyphname = e;
lastChange = "2024-11-01 18:55:58 +0000";
layers = (
{
background = {
shapes = (
{
closed = 1;
nodes = (
(150,290,l),
(270,290,l),
(270,400,l),
(150,400,l)
);
},
{
closed = 1;
nodes = (
(130,500,l),
(370,500,l),
(370,210,l),
(150,210,l),
(150,100,l),
(370,100,l),
(370,80,l),
(290,0,l),
(50,0,l),
(50,420,l)
);
}
);
};
layerId = m002;
shapes = (
{
closed = 1;
nodes = (
(150,290,l),
(270,290,l),
(270,400,l),
(150,400,l)
);
},
{
closed = 1;
nodes = (
(110,500,l),
(370,500,l),
(370,210,l),
(150,210,l),
(150,100,l),
(370,100,l),
(370,70,l),
(310,0,l),
(50,0,l),
(50,430,l)
);
}
);
width = 405;
}
);
metricLeft = o;
unicode = 101;
},
{
color = 4;
glyphname = f;
lastChange = "2024-11-01 15:21:58 +0000";
layers = (
{
associatedMasterId = m002;
layerId = "D4EF8804-285B-4EFB-85FA-1D28EC6AD414";
name = "22 Oct 24 at 9:01 PM";
shapes = (
{
closed = 1;
nodes = (
(340,470,l),
(280,400,l),
(225,400,l),
(225,0,l),
(125,0,l),
(125,400,l),
(20,400,l),
(20,430,l),
(80,500,l),
(125,499,l),
(125,640,l),
(185,710,l),
(340,710,l),
(340,680,l),
(280,610,l),
(225,610,l),
(225,500,l),
(340,500,l)
);
}
);
width = 360;
},
{
associatedMasterId = m002;
layerId = "2061EE14-D043-457E-9629-76011C9B593D";
name = "30 Oct 24 at 2:09 PM";
shapes = (
{
closed = 1;
nodes = (
(15,430,l),
(75,500,l),
(120,499,l),
(120,640,l),
(180,710,l),
(335,710,l),
(335,680,l),
(275,610,l),
(220,610,l),
(220,500,l),
(335,500,l),
(335,400,l),
(220,400,l),
(220,0,l),
(120,0,l),
(120,400,l),
(15,400,l)
);
}
);
width = 350;
},
{
associatedMasterId = m002;
background = {
shapes = (
{
closed = 1;
nodes = (
(15,430,l),
(75,500,l),
(110,500,l),
(110,640,l),
(170,710,l),
(320,710,l),
(320,680,l),
(260,610,l),
(210,610,l),
(210,500,l),
(320,500,l),
(320,400,l),
(210,400,l),
(210,0,l),
(110,0,l),
(110,400,l),
(15,400,l)
);
}
);
};
layerId = "4C182E36-EDA7-4694-8EB9-C283BE1E9693";
name = "30 Oct 24 at 2:20 PM";
shapes = (
{
closed = 1;
nodes = (
(15,430,l),
(75,500,l),
(110,500,l),
(147,640,l),
(225,710,l),
(375,710,l),
(367,680,l),
(289,610,l),
(233,610,l),
(210,500,l),
(320,500,l),
(320,400,l),
(210,400,l),
(210,0,l),
(110,0,l),
(110,400,l),
(15,400,l)
);
}
);
width = 335;
},
{
layerId = m002;
name = Regular;
shapes = (
{
closed = 1;
nodes = (
(15,430,l),
(75,500,l),
(105,500,l),
(105,640,l),
(165,710,l),
(315,710,l),
(315,680,l),
(255,610,l),
(205,610,l),
(205,500,l),
(315,500,l),
(315,400,l),
(205,400,l),
(205,0,l),
(105,0,l),
(105,400,l),
(15,400,l)
);
}
);
width = 325;
}
);
unicode = 102;
},
{
color = 4;
glyphname = g;
lastChange = "2024-10-21 22:26:16 +0000";
layers = (
{
layerId = m002;
shapes = (
{
closed = 1;
nodes = (
(270,100,l),
(270,400,l),
(150,400,l),
(150,100,l)
);
},
{
closed = 1;
nodes = (
(310,-200,l),
(70,-200,l),
(70,-170,l),
(130,-100,l),
(270,-100,l),
(270,80,l),
(230,0,l),
(50,0,l),
(50,430,l),
(110,500,l),
(370,500,l),
(370,-130,l)
);
}
);
width = 420;
}
);
unicode = 103;
},
{
color = 4;
glyphname = h;
lastChange = "2024-10-21 22:26:16 +0000";
layers = (
{
layerId = m002;
shapes = (
{
closed = 1;
nodes = (
(150,400,l),
(270,400,l),
(270,0,l),
(370,0,l),
(370,500,l),
(210,500,l),
(150,429,l),
(150,710,l),
(50,710,l),
(50,0,l),
(150,0,l)
);
}
);
width = 420;
}
);
unicode = 104;
},
{
color = 4;
glyphname = i;
lastChange = "2024-10-21 22:26:16 +0000";
layers = (
{
background = {
shapes = (
{
closed = 1;
nodes = (
(150,500,l),
(150,0,l),
(50,0,l),
(50,500,l)
);
},
{
closed = 1;
nodes = (
(150,750,l),
(150,600,l),
(50,600,l),
(50,750,l)
);
}
);
};
layerId = m002;
shapes = (
{
closed = 1;
nodes = (
(150,500,l),
(150,0,l),
(50,0,l),
(50,430,l),
(110,500,l)
);
},
{
closed = 1;
nodes = (
(150,710,l),
(150,590,l),
(50,590,l),
(50,710,l)
);
}
);
width = 200;
}
);
metricLeft = o;
metricRight = o;
unicode = 105;
},
{
color = 4;
glyphname = j;
lastChange = "2024-10-21 22:26:16 +0000";
layers = (
{
layerId = m002;
shapes = (
{
closed = 1;
nodes = (
(150,710,l),
(150,590,l),
(50,590,l),
(50,710,l)
);
},
{
closed = 1;
nodes = (
(150,-130,l),
(90,-200,l),
(-40,-200,l),
(-40,-170,l),
(20,-100,l),
(50,-100,l),
(50,430,l),
(110,500,l),
(150,500,l)
);
}
);
width = 200;
}
);
unicode = 106;
},
{
color = 4;
glyphname = l;
lastChange = "2024-11-01 15:25:40 +0000";
layers = (
{
background = {
shapes = (
{
closed = 1;
nodes = (
(150,500,l),
(270,500,l),
(270,610,l),
(150,610,l)
);
},
{
closed = 1;
nodes = (
(110,710,l),
(370,710,l),
(370,420,l),
(150,420,l),
(150,310,l),
(370,310,l),
(370,280,l),
(310,210,l),
(50,210,l),
(50,640,l)
);
},
{
closed = 0;
nodes = (
(149,69,l),
(89,-1,l)
);
}
);
};
layerId = m002;
shapes = (
{
closed = 1;
nodes = (
(150,710,l),
(150,0,l),
(50,0,l),
(50,710,l)
);
}
);
width = 200;
},
{
associatedMasterId = m002;
background = {
shapes = (
{
closed = 1;
nodes = (
(150,500,l),
(270,500,l),
(270,610,l),
(150,610,l)
);
},
{
closed = 1;
nodes = (
(110,710,l),
(370,710,l),
(370,420,l),
(150,420,l),
(150,310,l),
(370,310,l),
(370,280,l),
(310,210,l),
(50,210,l),
(50,640,l)
);
}
);
};
layerId = "C770EF96-9D63-4FB9-9B51-0999E9F3D293";
name = "1 Nov 24 at 12:23 PM";
shapes = (
{
closed = 1;
nodes = (
(150,710,l),
(150,0,l),
(50,0,l),
(50,710,l)
);
}
);
width = 200;
}
);
unicode = 108;
},
{
color = 4;
glyphname = m;
lastChange = "2024-10-21 22:26:16 +0000";
layers = (
{
layerId = m002;
shapes = (
{
closed = 1;
nodes = (
(150,400,l),
(250,400,l),
(250,0,l),
(350,0,l),
(350,500,l),
(210,500,l),
(150,429,l),
(150,500,l),
(50,501,l),
(50,0,l),
(150,0,l)
);
},
{
closed = 1;
nodes = (
(450,400,l),
(450,0,l),
(550,0,l),
(550,500,l),
(410,500,l),
(350,429,l),
(310,431,l),
(310,400,l)
);
}
);
width = 600;
}
);
unicode = 109;
},
{
color = 4;
glyphname = n;
lastChange = "2024-10-21 22:26:16 +0000";
layers = (
{
background = {
shapes = (
{
closed = 1;
nodes = (
(150,290,l),
(270,290,l),
(270,400,l),
(150,400,l)
);
}
);
};
layerId = m002;
shapes = (
{
closed = 1;
nodes = (
(150,400,l),
(270,400,l),
(270,0,l),
(370,0,l),
(370,500,l),
(210,500,l),
(150,429,l),
(150,500,l),
(50,500,l),
(50,0,l),
(150,0,l)
);
}
);
width = 420;
}
);
unicode = 110;
},
{
color = 4;
glyphname = o;
lastChange = "2024-11-02 12:47:16 +0000";
layers = (
{
background = {
shapes = (
{
closed = 1;
nodes = (
(270,400,l),
(150,400,l),
(150,100,l),
(270,100,l)
);
},
{
closed = 1;
nodes = (
(290,0,l),
(50,0,l),
(50,420,l),
(130,500,l),
(370,500,l),
(370,80,l)
);
}
);
};
layerId = m002;
shapes = (
{
closed = 1;
nodes = (
(270,400,l),
(150,400,l),
(150,100,l),
(270,100,l)
);
},
{
closed = 1;
nodes = (
(300,0,l),
(50,0,l),
(50,430,l),
(110,500,l),
(370,500,l),
(370,60,l)
);
}
);
width = 420;
},
{
associatedMasterId = m002;
background = {
shapes = (
{
closed = 1;
nodes = (
(270,400,l),
(150,400,l),
(150,100,l),
(270,100,l)
);
},
{
closed = 1;
nodes = (
(290,0,l),
(50,0,l),
(50,420,l),
(130,500,l),
(370,500,l),
(370,80,l)
);
}
);
};
layerId = "EC6F08ED-38A5-4477-AA9E-499DB9FE8805";
name = "2 Nov 24 at 9:47 AM";
shapes = (
{
closed = 1;
nodes = (
(270,400,l),
(150,400,l),
(150,100,l),
(270,100,l)
);
},
{
closed = 1;
nodes = (
(300,0,l),
(50,0,l),
(50,430,l),
(110,500,l),
(370,500,l),
(370,60,l)
);
}
);
width = 420;
}
);
unicode = 111;
},
{
color = 4;
glyphname = p;
lastChange = "2024-10-22 03:13:29 +0000";
layers = (
{
associatedMasterId = m002;
layerId = "7A71CEE1-62A7-4179-8D2F-F4797CCCABA8";
name = "22 Oct 24 at 12:13 AM";
shapes = (
{
closed = 1;
nodes = (
(150,100,l),
(150,400,l),
(270,400,l),
(270,100,l)
);
},
{
closed = 1;
nodes = (
(50,-200,l),
(80,-200,l),
(150,-140,l),
(150,0,l),
(300,0,l),
(370,60,l),
(370,500,l),
(210,500,l),
(150,429,l),
(150,500,l),
(50,500,l)
);
}
);
width = 420;
},
{
layerId = m002;
name = Regular;
shapes = (
{
closed = 1;
nodes = (
(270,400,l),
(150,400,l),
(150,100,l),
(270,100,l)
);
},
{
closed = 1;
nodes = (
(80,-200,l),
(50,-200,l),
(50,430,l),
(110,500,l),
(370,500,l),
(370,60,l),
(300,0,l),
(150,0,l),
(150,-140,l)
);
}
);
width = 420;
}
);
unicode = 112;
},
{
color = 4;
glyphname = q;
lastChange = "2024-10-21 22:26:16 +0000";
layers = (
{
layerId = m002;
shapes = (
{
closed = 1;
nodes = (
(110,500,l),
(370,500,l),
(370,-130,l),
(310,-200,l),
(270,-200,l),
(270,80,l),
(230,0,l),
(50,0,l),
(50,430,l)
);
},
{
closed = 1;
nodes = (
(270,400,l),
(150,400,l),
(150,100,l),
(270,100,l)
);
}
);
width = 420;
}
);
unicode = 113;
},
{
color = 4;
glyphname = r;
lastChange = "2024-10-30 17:04:57 +0000";
layers = (
{
background = {
shapes = (
{
closed = 1;
nodes = (
(150,400,l),
(270,400,l),
(370,500,l),
(210,500,l),
(150,429,l),
(150,500,l),
(50,500,l),
(50,0,l),
(150,0,l)
);
}
);
};
layerId = m002;
shapes = (
{
closed = 1;
nodes = (
(150,400,l),
(290,400,l),
(290,500,l),
(210,500,l),
(150,429,l),
(150,500,l),
(50,500,l),
(50,0,l),
(150,0,l)
);
}
);
width = 300;
}
);
unicode = 114;
},
{
color = 4;
glyphname = s;
lastChange = "2024-11-02 13:08:14 +0000";
layers = (
{
associatedMasterId = m002;
background = {
shapes = (
{
closed = 1;
nodes = (
(270,400,l),
(150,400,l),
(150,100,l),
(270,100,l)
);
},
{
closed = 1;
nodes = (
(300,0,l),
(50,0,l),
(50,430,l),
(110,500,l),
(370,500,l),
(370,60,l)
);
}
);
};
layerId = "AB730643-EB0B-4F6E-8F8F-918FD483B808";
name = "2 Nov 24 at 9:51 AM";
shapes = (
{
closed = 1;
nodes = (
(50,210,l),
(50,430,l),
(110,500,l),
(370,500,l),
(370,470,l),
(310,400,l),
(150,400,l),
(150,290,l),
(370,290,l),
(370,70,l),
(310,0,l),
(50,0,l),
(50,100,l),
(270,100,l),
(270,210,l)
);
}
);
width = 420;
},
{
associatedMasterId = m002;
background = {
shapes = (
{
closed = 1;
nodes = (
(30,266,l),
(30,430,l),
(90,500,l),
(290,500,l),
(290,470,l),
(230,400,l),
(130,400,l),
(130,326,l),
(290,233,l),
(290,70,l),
(230,0,l),
(30,0,l),
(30,100,l),
(190,100,l),
(190,174,l)
);
}
);
};
layerId = "9B38ACEC-53F7-4441-B465-0C24467BA7EA";
name = "2 Nov 24 at 10:00 AM";
shapes = (
{
closed = 1;
nodes = (
(30,266,l),
(30,430,l),
(90,500,l),
(290,500,l),
(290,470,l),
(230,400,l),
(130,400,l),
(130,326,l),
(290,233,l),
(290,70,l),
(230,0,l),
(30,0,l),
(30,30,l),
(90,100,l),
(190,100,l),
(190,174,l)
);
}
);
width = 320;
},
{
background = {
shapes = (
{
closed = 1;
nodes = (
(230,400,l),
(110,400,l),
(110,100,l),
(230,100,l)
);
},
{
closed = 1;
nodes = (
(260,0,l),
(10,0,l),
(10,430,l),
(70,500,l),
(330,500,l),
(330,60,l)
);
}
);
};
layerId = m002;
name = Regular;
shapes = (
{
closed = 1;
nodes = (
(40,266,l),
(40,430,l),
(100,500,l),
(300,500,l),
(300,470,l),
(240,400,l),
(140,400,l),
(140,326,l),
(300,233,l),
(300,70,l),
(240,0,l),
(40,0,l),
(40,100,l),
(200,100,l),
(200,174,l)
);
}
);
width = 330;
}
);
unicode = 115;
},
{
color = 4;
glyphname = t;
lastChange = "2024-11-01 15:22:02 +0000";
layers = (
{
layerId = m002;
shapes = (
{
closed = 1;
nodes = (
(205,100,l),
(315,100,l),
(315,70,l),
(255,0,l),
(105,0,l),
(105,400,l),
(15,400,l),
(15,430,l),
(75,500,l),
(105,500,l),
(105,540,l),
(165,610,l),
(205,610,l),
(205,500,l),
(315,500,l),
(315,400,l),
(205,400,l)
);
}
);
width = 325;
}
);
unicode = 116;
},
{
color = 4;
glyphname = u;
lastChange = "2024-10-21 22:26:16 +0000";
layers = (
{
layerId = m002;
shapes = (
{
closed = 1;
nodes = (
(270,100,l),
(150,100,l),
(150,500,l),
(50,500,l),
(50,0,l),
(210,0,l),
(270,71,l),
(270,0,l),
(370,0,l),
(370,500,l),
(270,500,l)
);
}
);
width = 420;
}
);
unicode = 117;
},
{
color = 4;
glyphname = v;
lastChange = "2024-11-02 12:46:06 +0000";
layers = (
{
associatedMasterId = m002;
background = {
shapes = (
{
closed = 1;
nodes = (
(285,500,l),
(201,75,l),
(199,75,l),
(115,500,l),
(15,500,l),
(125,0,l),
(275,0,l),
(385,500,l)
);
}
);
};
layerId = "8D4AE2C1-EDF1-4285-AE47-FD30AD23B1F3";
name = "2 Nov 24 at 9:40 AM";
shapes = (
{
closed = 1;
nodes = (
(285,500,l),
(201,105,l),
(199,105,l),
(115,500,l),
(15,500,l),
(140,0,l),
(260,0,l),
(385,500,l)
);
}
);
width = 400;
},
{
associatedMasterId = m002;
background = {
shapes = (
{
closed = 1;
nodes = (
(295,500,l),
(205,70,l),
(115,500,l),
(90,500,l),
(15,500,l),
(31,431,l),
(130,0,l),
(280,0,l),
(395,500,l)
);
}
);
};
layerId = "946DC63F-6E2C-47FA-A0E0-97D8A556421D";
name = "30 Oct 24 at 2:18 PM";
shapes = (
{
closed = 1;
nodes = (
(295,500,l),
(205,70,l),
(115,500,l),
(90,500,l),
(31,431,l),
(130,0,l),
(280,0,l),
(395,500,l)
);
}
);
width = 410;
},
{
associatedMasterId = m002;
background = {
shapes = (
{
closed = 1;
nodes = (
(285,500,l),
(201,75,l),
(199,75,l),
(115,500,l),
(15,500,l),
(125,0,l),
(275,0,l),
(385,500,l)
);
}
);
};
layerId = "D4166021-C729-4633-8E64-5FE719B378C1";
name = "2 Nov 24 at 9:46 AM";
shapes = (
{
closed = 1;
nodes = (
(285,500,l),
(201,85,l),
(199,85,l),
(115,500,l),
(15,500,l),
(129,0,l),
(271,0,l),
(385,500,l)
);
}
);
width = 400;
},
{
background = {
shapes = (
{
closed = 1;
nodes = (
(285,500,l),
(201,75,l),
(199,75,l),
(115,500,l),
(15,500,l),
(125,0,l),
(275,0,l),
(385,500,l)
);
}
);
};
layerId = m002;
name = Regular;
shapes = (
{
closed = 1;
nodes = (
(285,500,l),
(201,75,l),
(199,75,l),
(115,500,l),
(15,500,l),
(125,0,l),
(275,0,l),
(385,500,l)
);
}
);
width = 400;
}
);
unicode = 118;
},
{
color = 4;
glyphname = w;
lastChange = "2024-11-02 12:35:40 +0000";
layers = (
{
associatedMasterId = m002;
layerId = "DF302474-79DB-43C7-AE69-B9C04AC78CB2";
name = Wide;
shapes = (
{
closed = 1;
nodes = (
(200,70,l),
(120,500,l),
(20,500,l),
(120,0,l),
(280,0,l),
(380,500,l),
(280,500,l)
);
},
{
closed = 1;
nodes = (
(520,70,l),
(440,500,l),
(340,500,l),
(440,0,l),
(600,0,l),
(700,500,l),
(600,500,l)
);
}
);
width = 720;
},
{
background = {
shapes = (
{
closed = 1;
nodes = (
(181,85,l),
(179,85,l),
(115,500,l),
(15,500,l),
(109,0,l),
(251,0,l),
(319,310,l),
(321,310,l),
(389,0,l),
(531,0,l),
(625,500,l),
(525,500,l),
(461,85,l),
(459,85,l),
(370,500,l),
(270,500,l)
);
}
);
};
layerId = m002;
name = Regular;
shapes = (
{
closed = 1;
nodes = (
(181,85,l),
(179,85,l),
(115,500,l),
(15,500,l),
(109,0,l),
(251,0,l),
(319,310,l),
(321,310,l),
(389,0,l),
(531,0,l),
(625,500,l),
(525,500,l),
(461,85,l),
(459,85,l),
(370,500,l),
(270,500,l)
);
}
);
width = 640;
},
{
associatedMasterId = m002;
layerId = "7BAD01F1-D759-4A79-B3BA-14B1596D5554";
name = "Narrow 1";
shapes = (
{
closed = 1;
nodes = (
(172,26,l),
(208,26,l),
(120,500,l),
(20,500,l),
(120,0,l),
(260,0,l),
(360,500,l),
(260,500,l)
);
},
{
closed = 1;
nodes = (
(422,26,l),
(458,26,l),
(370,500,l),
(270,500,l),
(370,0,l),
(510,0,l),
(610,500,l),
(510,500,l)
);
}
);
width = 630;
},
{
associatedMasterId = m002;
background = {
shapes = (
{
closed = 1;
nodes = (
(522,0,l),
(422,500,l),
(272,500,l),
(172,0,l),
(272,0,l),
(347,430,l),
(422,0,l)
);
}
);
};
layerId = "32C79E26-406D-4024-9EEA-904AF3D6F1A5";
name = "30 Oct 24 at 2:21 PM";
shapes = (
{
closed = 1;
nodes = (
(180,80,l),
(115,500,l),
(15,500,l),
(105,0,l),
(255,0,l),
(320,310,l),
(385,0,l),
(535,0,l),
(625,500,l),
(525,500,l),
(460,80,l),
(370,500,l),
(270,500,l)
);
}
);
width = 640;
},
{
associatedMasterId = m002;
background = {
shapes = (
{
closed = 1;
nodes = (
(522,0,l),
(422,500,l),
(272,500,l),
(172,0,l),
(272,0,l),
(347,430,l),
(422,0,l)
);
}
);
};
layerId = "A920A567-A0FF-411C-A0C7-D4968A379A22";
name = "1 Nov 24 at 12:27 PM";
shapes = (
{
closed = 1;
nodes = (
(180,85,l),
(115,500,l),
(15,500,l),
(105,0,l),
(255,0,l),
(320,310,l),
(385,0,l),
(535,0,l),
(625,500,l),
(525,500,l),
(460,85,l),
(370,500,l),
(270,500,l)
);
}
);
width = 640;
}
);
unicode = 119;
},
{
color = 4;
glyphname = y;
lastChange = "2024-10-21 22:26:16 +0000";
layers = (
{
layerId = m002;
shapes = (
{
closed = 1;
nodes = (
(370,500,l),
(370,-130,l),
(310,-200,l),
(70,-200,l),
(70,-170,l),
(130,-100,l),
(270,-100,l),
(270,80,l),
(230,0,l),
(50,0,l),
(50,500,l),
(150,500,l),
(150,100,l),
(270,100,l),
(270,500,l)
);
}
);
width = 420;
}
);
unicode = 121;
},
{
color = 4;
glyphname = z;
lastChange = "2024-11-02 13:02:50 +0000";
layers = (
{
background = {
shapes = (
{
closed = 1;
nodes = (
(180,400,l),
(15,400,l),
(15,430,l),
(75,500,l),
(315,500,l),
(315,470,l),
(150,100,l),
(315,100,l),
(315,70,l),
(255,0,l),
(15,0,l),
(15,30,l)
);
}
);
};
layerId = m002;
shapes = (
{
closed = 1;
nodes = (
(180,405,l),
(25,405,l),
(25,430,l),
(85,500,l),
(305,500,l),
(305,465,l),
(150,95,l),
(305,95,l),
(305,70,l),
(245,0,l),
(25,0,l),
(25,35,l)
);
}
);
width = 330;
},
{
associatedMasterId = m002;
background = {
shapes = (
{
closed = 1;
nodes = (
(120,400,l),
(240,400,l),
(240,0,l),
(340,0,l),
(340,500,l),
(180,500,l),
(120,429,l),
(120,500,l),
(20,500,l),
(20,0,l),
(120,0,l)
);
}
);
};
layerId = "35495083-E81A-4E9B-984F-2173A2DC1473";
name = "1 Nov 24 at 12:46 PM";
shapes = (
{
closed = 1;
nodes = (
(185,400,l),
(20,400,l),
(20,430,l),
(80,500,l),
(320,500,l),
(320,470,l),
(155,100,l),
(320,100,l),
(320,70,l),
(260,0,l),
(20,0,l),
(20,30,l)
);
}
);
width = 340;
}
);
unicode = 122;
},
